grf
version=1
nRows=7
nColumns=37
inDegrees=no
endheader
time	ground_force_1_vx	ground_force_1_vy	ground_force_1_vz	ground_force_1_px	ground_force_1_py	ground_force_1_pz	ground_moment_1_mx	ground_moment_1_my	ground_moment_1_mz	ground_force_2_vx	ground_force_2_vy	ground_force_2_vz	ground_force_2_px	ground_force_2_py	ground_force_2_pz	ground_moment_2_mx	ground_moment_2_my	ground_moment_2_mz	ground_force_3_vx	ground_force_3_vy	ground_force_3_vz	ground_force_3_px	ground_force_3_py	ground_force_3_pz	ground_moment_3_mx	ground_moment_3_my	ground_moment_3_mz	ground_force_4_vx	ground_force_4_vy	ground_force_4_vz	ground_force_4_px	ground_force_4_py	ground_force_4_pz	ground_moment_4_mx	ground_moment_4_my	ground_moment_4_mz
      0.00000000	      0.00000000	     -0.00000000	      0.00000000	      0.00000000	      0.00000000	      0.00000000	      0.00000000	      0.00000000	      0.00000000	      9.36816311	     33.95762634	   -491.63485718	   -371.95025615	  -1083.76241385	      0.00000000	      0.00000000	     -0.00000000	  -1197.61566942	     -6.30335964	    -28.79189436	   -229.41186523	   -324.08394568	   -733.90092918	      0.00000000	      0.00000000	     -0.00000000	  -1378.45843455	      0.00000000	     -0.00000000	      0.00000000	      0.00000000	      0.00000000	      0.00000000	      0.00000000	      0.00000000	      0.00000000
      0.01000000	      0.00000000	     -0.00000000	      0.00000000	      0.00000000	      0.00000000	      0.00000000	      0.00000000	      0.00000000	      0.00000000	      9.36148167	     33.24901199	   -491.28668213	   -371.28075405	  -1083.93012049	      0.00000000	      0.00000000	     -0.00000000	  -1274.03188162	     -6.48216882	    -28.96534482	   -231.81607056	   -324.61793448	   -730.71335405	      0.00000000	     -0.00000000	     -0.00000000	  -1277.47613665	      0.00000000	     -0.00000000	      0.00000000	      0.00000000	      0.00000000	      0.00000000	      0.00000000	      0.00000000	      0.00000000
      0.02000000	      0.00000000	     -0.00000000	      0.00000000	      0.00000000	      0.00000000	      0.00000000	      0.00000000	      0.00000000	      0.00000000	      9.54191875	     33.33837509	   -490.90582275	   -371.80117968	  -1083.02704413	      0.00000000	      0.00000000	     -0.00000000	  -1163.76719373	     -6.30408688	    -29.50167982	   -231.13836670	   -324.65694426	   -730.52999821	      0.00000000	     -0.00000000	     -0.00000000	  -1403.73974898	      0.00000000	     -0.00000000	      0.00000000	      0.00000000	      0.00000000	      0.00000000	      0.00000000	      0.00000000	      0.00000000
      0.03000000	      0.00000000	     -0.00000000	      0.00000000	      0.00000000	      0.00000000	      0.00000000	      0.00000000	      0.00000000	      0.00000000	      9.45378208	     33.06611633	   -491.97467041	   -371.88159066	  -1083.10996968	      0.00000000	      0.00000000	     -0.00000000	  -1001.31341429	     -6.56696722	    -29.67373028	   -231.84597778	   -324.65013844	   -729.45106311	      0.00000000	      0.00000000	     -0.00000000	  -1281.64639874	      0.00000000	     -0.00000000	      0.00000000	      0.00000000	      0.00000000	      0.00000000	      0.00000000	      0.00000000	      0.00000000
      0.04000000	      0.00000000	     -0.00000000	      0.00000000	      0.00000000	      0.00000000	      0.00000000	      0.00000000	      0.00000000	      0.00000000	      9.09814167	     32.35965729	   -493.01284790	   -371.42644740	  -1082.80063169	      0.00000000	      0.00000000	     -0.00000000	  -1277.56099903	     -6.65705329	    -30.63769092	   -234.61024475	   -326.09635628	   -729.72410224	      0.00000000	      0.00000000	     -0.00000000	  -1292.95219279	      0.00000000	     -0.00000000	      0.00000000	      0.00000000	      0.00000000	      0.00000000	      0.00000000	      0.00000000	      0.00000000
      0.05000000	      0.00000000	     -0.00000000	      0.00000000	      0.00000000	      0.00000000	      0.00000000	      0.00000000	      0.00000000	      0.00000000	      9.19713020	     32.27223969	   -493.04476929	   -372.35804156	  -1082.93781887	      0.00000000	      0.00000000	     -0.00000000	  -1138.97875492	     -6.66125712	    -31.00091113	   -236.73001099	   -326.10626606	   -729.83510148	      0.00000000	      0.00000000	     -0.00000000	  -1273.88532255	      0.00000000	     -0.00000000	      0.00000000	      0.00000000	      0.00000000	      0.00000000	      0.00000000	      0.00000000	      0.00000000
      0.06000000	      0.00000000	     -0.00000000	      0.00000000	      0.00000000	      0.00000000	      0.00000000	      0.00000000	      0.00000000	      0.00000000	      9.54699707	     32.08694458	   -495.49981689	   -372.30860865	  -1083.88215407	      0.00000000	      0.00000000	     -0.00000000	   -985.97591260	     -6.13076442	    -31.96692032	   -237.78863525	   -324.65696670	   -730.79440452	      0.00000000	      0.00000000	     -0.00000000	  -1304.47001621	      0.00000000	     -0.00000000	      0.00000000	      0.00000000	      0.00000000	      0.00000000	      0.00000000	      0.00000000	      0.00000000
